<?xml version="1.0" encoding="UTF-8"?>
<svg id="Layer_1" xmlns="http://www.w3.org/2000/svg" version="1.1" viewBox="0 0 595.2000122 595.2000122">
  <!-- Generator: Adobe Illustrator 29.6.1, SVG Export Plug-In . SVG Version: 2.1.1 Build 9)  -->
  <defs>
    <style>
      .st0 {
        fill: #333;
      }
    </style>
  </defs>
  <path class="st0" d="M451.7000122,512.2999878c-1.8999939.4000244-6.6000061.4000244-8.2999878-.6000061-2.3999939-1.5-6.8999939-9.3999939-8.3999939-12.2000122-3.5-6.2999878-6.3999939-17.2999878-15.2999878-16.7999878-9.1000061.6000061-25.6000061,11.6000061-33.2999878,17.1000061-.7000122.5-1.1000061,1.1000061-1.7000122,1.6000061h-.7000122l-3.7999878-5.6000061c-.3999939-1.6000061,5.8999939-15.6000061,7-18.2000122,8.3999939-18.7999878,17.7999878-37.2999878,25.7000122-56.2999878,1.3999939-3.2999878,7.3999939-18.3999939,7-20.7999878-.2999878-1.6000061-1.7999878-2.2000122-3.2000122-1.2999878-.7000122.5-2.6000061,4-3.2000122,5-5.2000122,9-10.7000122,20.8999939-15.2000122,30.3999939-1,2-1.7999878,4.2000122-2.5,6.3999939l-32.6000061-1.8999939c5.7999878-16.7999878,10.5-34.1000061,16.6000061-50.7999878.1000061-2-.7999878-2.7000122-2.7000122-2.2000122-1.3999939.3999939-5.2999878,8.7999878-6.1000061,10.7000122-7.5,16.1000061-12,34.3999939-19,51-6.6000061,15.7000122-15.7999878,31.1000061-20.6000061,47.5-.8999939,3.1000061-.5,3.2999878-2.1000061,6.1000061-2.5,4.2999878.6000061,9.2000122,4.2999878,11.4000244,5.8999939,3.5999756,25.1000061,4.5999756,31.1000061,1.4000244,1.2999878-.7000122,1.7000122-1.7999878,2.6000061-2.2999878,1.7000122-.8999939,5.5-1.5,6.7999878-2.2999878,1.5-1,1.2000122-3.7999878,2.7000122-4.7000122,4.2999878,7.9000244,16.6000061,18,25.6000061,18.7000122,3.8999939.2999878,12.8999939,0,15.2000122-3.5,1.2000122-1.7999878.7000122-3.2000122-1.1000061-4.4000244-2.7000122-1.7999878-5.1000061.2999878-7.8999939.2999878-6.7999878,0-10-1.2999878-15.2999878-5.2999878-.7999878-.6000061-7.2999878-6.2999878-7-6.7000122,7.2000122-1.3999939,27.6000061-16.1000061,34-13.2000122,1.7000122.7999878,6.6000061,12.7999878,8.1000061,15.3999939,3.2000122,5.8000183,8,13.5000305,15.2000122,14.1000061,5.5.5,9.7000122-.4000244,14.1000061-3.7000122,2.1000061-1.5,6.2000122-4.7999878,5.2000122-7.6000061-3.6000061-4-7.8999939,2.7000122-11.2999878,3.3999939l.0999451-.1000366ZM368.5,506.7999878c-1,1.8999939-3.7000122.7000122-4.8999939.7999878-1,0-1.7999878.5-2.8999939.5-7.6000061.2999878-15.3999939.1000061-22.7999878-1.5-.8999939-1.2000122,16.3999939-7.5,17.7000122-7.8999939,2.7999878-.7999878,11.7000122-3.2999878,14.1000061-2.5.5.2000122,1.1000061.7000122,1.2000122,1.2000122s-2.1000061,8.8999939-2.3999939,9.3999939h-.000061ZM374.2999878,490.2999878c-7.7000122-2.1000061-17.6000061,1.2000122-25,4-4.1000061,1.6000061-7.8999939,3.7999878-11.8999939,5.6000061,5.3999939-19.2000122,17-35.7999878,23-54.7000122,10.6000061,3.1000061,21.2000122,3.2000122,32.1000061,2.3999939l-18.2999878,42.6000061.0999756.1000061Z"/>
  <path class="st0" d="M93.0999985,182.5c1-.6999969,7.1999969-4,7.9000015-3.3000031-4.1999969,8.5-9.0999985,16.8999939-13,25.6000061-4.4000015,9.6999969-8.5999985,20.3999939-10.3000031,30.8999939-.4000015,2.6000061-1.5999985,6.8999939.8000031,8.8999939,3.4000015,2.8999939,6.0999985-2.8000031,7.0999985-5.3999939,2.4000015-6.1999969,3.5999985-13.8999939,5.9000015-20.5,4.6999969-13.8999939,11-27.3000031,15.5-41.4000092,5.3000031-1.6000061,10.5999985-.6999969,15.1999969,2.3000031-.8000031,1.1999969-1.5999985,1.6000061-1.9000015,3.1000061-1.1999969,5.6999969-1,14.3999939-1.5,20.6000061-1,12-1.3000031,22-1.5,34.0999908,0,2.8000031,1.0999985,4.3999939-1.9000015,6.6999969-3.8000031,2.8999939-17.4000015,7-22.3000031,7.5-3.0999985.3000031-9.6999969-1-11.8000031.6999969-3.6999969,3,.6999969,6.8999939,4.0999985,7,1.1999969,0,3-.7000122,3.6999969-.5,1.6999969.5.3000031,4.2000122.3000031,5.5-.4000015,11.7999878.3000031,23.7000122,0,35.5-1.1999969,5.8999939-11.4000015,11-10.5,17.2999878.0999985.7000122.5,1.8999939,1.3000031,2.1000061.5999985.2000122,1.0999985,0,1.5999985-.2000122,1.3000031-.3999939,10.0999985-8.1000061,11.5-9.6000061,7.5-8.1000061,4.0999985-17.2999878,4.8000031-27.2999878l-3.3000031-23.2000122c7.0999985-1.3999939,14.0999985-3.6000061,20.5999985-6.6999969-.4000015,2,1.5,3,2,4.4999847,1.4000015,3.7999878-1.5,16.5-1.5999985,21.7000122,0,7.2000122,2.5999985,20.5,11.8000031,20.8999939,7.5.3999939-.3000031-9.1000061-1.3000031-11.2000122-3.6999969-8.1000061-1.4000015-17-1.3000031-25,0-5.1000061-1.3000031-10.1999969-5.8000031-13,4.1999969-2.5,5.9000015-6.8000031,6.1999969-11.5,1-12.3999939.5-27.1000061.9000015-39.8000031.0999985-4.3999939,1.1999969-8.8999939,0-13.3999939l1-.1999969c5.0999985,7.8999939,5.9000015,15.6999969,15.7000046,19.5,2.1000061.8000031,7.1999969,1.8000031,8.5-.8000031,1.8000031-3.6000061-3.6999969-4.8999939-5.8000031-6.1999969-6.1000061-3.8999939-5.3000031-6.6999969-8.3000031-12.3000031-2.1000061-4-7.1999969-9.6999969-11-12-17.6999969-10.8999939-38.1999969,2.8000031-51.6999969,14.3000031-4.5,3.8000031-8.5999985,8.8999939-13.0999985,12.8000031.0999985,5.8999939,8.5-.3000031,10.9000015-2.1000061,6.8000031-5,13.1999969-11,20.4000015-15.6000061l.2000122-.299942Z"/>
  <path class="st0" d="M337.8999939,364.5c5.3999939-3.5-5.2000122-7.7999878-6.8999939-9.7999878-3.3999939-4-2.6000061-15.2000122-3.2000122-20.2999878-.8999939-7.8999939-1.7999878-16.6000061-2.8999939-24.3999939-.6000061-4.3999939-2-9.5-4.7000122-13,5.7999878-2.8999939,3.1000061-10,4.1000061-15.1000061,10.7999878-4.7000122,13.7000122-17.8999939,10.7999878-28.5-.8999939-3.3000031-2.7000122-8.1999969-5.6000061-10.1999969-2.3999939-1.6000061-9.7000122-4.3000031-11.2999878-.8999939-2.2000122,4.8000031,5.7000122,3.8999939,7.7999878,6.8000031.7000122,1,2.6000061,6.8000031,2.7999878,8.2000122.8999939,5.5,0,13.7999878-4.7999878,17.5.3999939-4.1000061-2.7999878-26.1999969-4.8999939-28.1999969-1.5-1.3999939-4.1000061-.3999939-4.7999878,1.3999939-.6000061,1.3999939-.3999939,2.8999939-.3999939,4.3999939.2000122,6.5999908,2.1000061,13.9000092,2.3999939,20.5999908.2999878,6.3999939-.2000122,13,0,19.3999939-3.8999939,2.5-7,2.8999939-11.7000122,2.5-4.7999878-.5-6.2000122-1.6000061-7.7999878-6.1000061-2.3999939-6.7000122-3.5-27-3-34.3999939,0-1.5.7000122-7,1.1000061-8.1000061.8999939-2.5,12.3999939-2,15.2999878-3.3999939,1.1000061-.6000061,1.3999939-2.3999939.5-3.3999939-1.6000061-1.6000061-5.1000061-.1999969-7-.1999969-3.7999878,0-6.2000122-.5-10.3999939.6000061-5.1000061,1.3000031-4.5,5.6999969-5.8999939,10l-.5.3000031c-6-2.1999969-12,8.1000061-13.3999939,12.7000122-.8999939,3.1000061-1.8999939,9.8999939-1.7999878,13.1000061.1000061,6,9.2999878,18.6000061,16.2999878,13.8999939,1.8999939,4.2000122,3.1000061,8.3999939,7.2000122,11.1000061,0,.2000122-1.1000061.5-1.5.8999939-.8999939,1.1000061-1.2999878,6-1.3999939,7.7000122-.6000061,9,0,18.2999878-.5,27.2999878-.3999939,7.3999939-.3999939,17.8999939-1.5,24.8999939-.2999878,2.1000061-4.8999939,7.5-.6000061,8.7999878,6.6000061,1.8999939,8.2999878-6.7999878,8.7999878-11.2000122,1.5-13.7999878,1.6000061-28.7999878.5-42.7000122-.3999939-4.8999939-1.3999939-10.2000122-1.8999939-15.1000061,6.2999878,2.1000061,15.6000061,3.2999878,19.3999939-3.3999939.6000061,3.8999939,1.8999939,7.7999878,2.1000061,11.7999878.7999878,10.6000061.7000122,21.5,1.3999939,32.1000061.5,7.2000122,1,15.3999939,7.2000122,20.1000061,2.5,1.8999939,7.5,4.2999878,10.5,2.3999939l.1999817-.1000061ZM278.8999939,274.7999878c-.5-5.2000122.2999878-11.3999939,2.7999878-15.8999939.2999878-.6000061,3.8999939-6.3999939,4.8999939-5.3999939-2.1000061,10.7999878.1000061,21.7000122.5,32.6000061-3-2.7000122-7.7999878-7.1000061-8.2000122-11.2000122l.0000305-.1000061Z"/>
  <path class="st0" d="M224.1000061,326.2000122c-.6000061-.3999939-1-.2999878-1.6000061,0-2.6000061,1-4.6999969,9.3999939-6,12.2999878-4.5,10.1000061-11.1000061,18.1000061-19.6000061,25-7.3000031,5.8999939-14,6.2000122-22.1000061,9.6000061-5.8999939,2.5-18.1999969,9.6000061-22.1000061,14.3999939-6,7.3999939-12.3000031,29-4.8000031,36.3999939,2.1000061,2,6.8000031,2.6000061,6.3000031-.8999939-.1999969-1.2000122-2.8000031-2.1000061-3.3000031-4.8999939-1.8000031-10.1000061,2.8999939-25.1000061,11.6999969-30.7000122,9.3000031-5.8999939,15.6999969-7.8999939,25.6999969-11.7000122,3-1.1000061,5.5-3.1000061,8.5-4.2000122l-2.3999939,63.7999878c-.8999939.8999939-15.5-2.8999939-17.6999969-3.6000061-1.8999939-.6000061-8.5-4.8999939-9.5-1.7999878l.3999939,3c-5.1000061-1.7000122-6.3999939,4.8999939-7,8.5-3,16.7000122-.8999939,35.1000061-1.6000061,52.1000061-.3000031,2.3999939-3.6000061,2.7999878-5,5.1000061-2.3999939,4.1000061,1.1000061,7.3999939,5.3999939,5.3999939,4.6999969-2.2000122,7.1000061-4.7999878,7.6999969-10.1000061,1.3999939-13-.3000031-29.3999939-.3999939-42.6000061,0-3.6000061-.1999969-10,.6000061-13.3999939.3000031-1.2999878,1.6999969-1.8999939,1.8000031-3.2000122.6000061-.3999939,4.3000031,3.1000061,5.1999969,3.6000061,2.3000031,1.2000122,8.1999969,3.1000061,10.8999939,3.5,1.8000031.2999878,9.6999969.3999939,10,1,.6000061,11.8999939,1.3000031,23.7999878,1.1000061,35.7999878,0,1.1000061.5,2.1000061.5,3.2999878,0,.8999939-1.8000031,9.5-2.1000061,9.8999939-2.6999969,1.1000061-6.3000031,1.2000122-7.8999939,4.1000061-1.3999939,2.6000061.6000061,5.3999939,3.5,5,3.1999969-2.1000061,7.1999969-1.6000061,9.1999969-5.2000122,2.6999969-5,4-17.1000061,4.1000061-22.7999878,0-5.7000122-.3999939-13.5-1-19.2000122-.3999939-3.7999878-2.6999969-11.7999878-2.3999939-14.8999939,0-.8999939,1.1000061-1.5,1.3000031-2.5.3000031-1.3999939,0-2.8999939.1000061-4.2000122,2.3999939-17.7999878,1.3999939-38.1000061.5-56.1000061-.1000061-2.6000061.6000061-5.3999939-.8000031-7.7000122,3.8999939-4.7000122,9.1000061-8.2000122,12.6999969-13,3.5-4.5,6.8999939-11.1000061,8.8999939-16.5,1.1000061-2.7999878,4.8000031-11.1000061,1.1000061-12.6000061l.1000214.0001221Z"/>
  <path class="st0" d="M389.7000122,193.8000031c-.2000122,5,7.3999939,3.1999969,10.1000061,1.3999939,6.3999939-4.3999939,5.7999878-18,7.3999939-25.3000031,1.5-6.8999939,5-18.1000061,12.3999939-20.6999969,2.5-.8999939,4.8999939-.5,7.2000122-.8999939,1.7999878-.3999939,5.7000122-2,6.7999878-2.1000061,1.2999878,0,4.3999939,1.1000061,6.2000122,1.1999969,5.3999939.3999939,11.2000122-.1999969,16.6000061-.5-.3999939,3.5,1.7999878,6.6000061,2.8999939,9.8000031.7999878,2.3999939,1.2999878,4.8999939,2.2999878,7.3000031,3.2999878,8.1000061,9.3999939,15.3999939,13,23.3999939,0,.6999969-11.8999939,3.1000061-12.8999939,6.3999939-.7000122,2.3000031.2000122,3.8000031,2.5,4,2.7000122.1999969,11.8999939-2.8000031,14.7999878-4,3.3999939-1.3999939,4.5-1.8000031,4.2000122-5.8999939-.5-7.1999969-11.1000061-19.6000061-14.6000061-26.6000061-2.6000061-5.1000061-3.8999939-12.1999969-8.8999939-15.6000061,3.7000122-4.3000031,2.1000061-9.1999969,2.3999939-14.3999939.3999939-6.3000031,1.6000061-12.5999985,1.5-18.9000015,3.3999939.6999969,8.7000122,3.4000015,9.5,7.0999985.2999878,1.6999969.2999878,7.6999969,0,9.3999939-.6000061,2.8000031-7.7999878,7.1999969-3,10,3.7999878,2.1999969,9.6000061-4.8999939,10.2000122-8.5,1.3999939-8.0999985-.3999939-18.1999969-8.7000122-21.8000031-1.7000122-.6999969-7.6000061-1.5999985-7.8999939-1.9000015-.2000122-.0999985-.6000061-2.9000015-1.5-3.9000015-3.2000122-3.5999985-13,1.0999985-17.1000061,1.5-2.7000122.3000031-12-.9000015-13.1000061.3000031-2.6000061,5.4000015,5,6.6999969,8.8999939,7,5.1000061.4000015,10.2999878-.1999969,15.1000061-1.9000015l-1,29.7000046c-2.8999939-.3000031-5.5.5-8.3999939.5-5.6000061,0-11-1.6999969-16.5-1.8999939.3999939-3.3000031-1.2000122-6.8000031-1.3999939-9.8000031-.3999939-4.3000031.7000122-13.5-1.8999939-16.8000031-3-3.8000031-9.1000061-2.3000031-13.3999939-3.5999985-1.3999939-1.4000015,5.7000122-13.5,6.5-15.8000031.8999939-2.5.7000122-5.3000031-2.7999878-4.1999969-2.1000061.5999985-8.5,11.0999985-9.5,13.5-5.7999878,13.5999985,2.3999939,15.0999985,14,15.1999969-.5,5.6999969.3999939,11,1,16.5999985.2000122,1.6999969-.2000122,3.5,0,5.3000031.2000122,2,1.2000122,3.6000061,1.3999939,5.5-3.7999878,1-6.8999939.8000031-10.3999939,2.8000031-7.2999878,4.1000061-11.6000061,13.3999939-13.7999878,21.1999969-1.1000061,3.8999939-2.8999939,18.3999939-4.5,20.3999939-1.6000061,1.8999939-5.2000122,2.5-5.2999878,5.8000031l-.3000488-.2999725Z"/>
  <path class="st0" d="M498.1000061,215.1000061c4.2999878.8999939,12.8999939,6.5,16.8000183,3.1000061,3.5-3.1000061-1.7999878-6.8000031-4.3999939-8.1000061-2.7000122-1.3999939-15.5-6.5-18.1000061-6.8999939-5.5-.6999969-8.7000122,0-9.2000122,5.8999939-.6000061,6.1999969,0,16.1000061.5,22.6000061,0,1.3999939.5,4.6000061.8999939,5.8000031.7999878,1.8999939,3.1000061,2.6000061,4.6000061,1.1000061,2.5-2.3999939,1.3999939-14.6000061,1.7000122-18.3999939,0-.6000061.2000122-2.8999939.8999939-3.1000061,20.8999939,46.9000092,26.8000183,101.4000092,12.2000122,151.0999908-8.8999939,30.3999939-29,64.3999939-60.1000061,76.1000061-3,1.1000061-14.7000122,3.6000061-15.8999939,4.7000122-3.1000061,2.7000122,0,5.7000122,4,5.3999939,11-.7999878,28.3999939-10.2999878,37-17.2000122,41.5-33.6000061,53.8999939-97.7000122,49.1999817-148.3999939-2.4000244-25.3999939-9.2999878-50.6000061-20.1000061-73.6000061v-.1000061Z"/>
  <path class="st0" d="M146.3000031,132.1000061c3.1000061,0,10.5-2.5,14.1000061-3.1999969,5-1.0999985,9.6999969-1.1999969,14.5-3.3000031.5-.1999969,4.8000031-2,3.3999939-2.9000015-5.6999969-2.0999985-10.6999969-3-16.8000031-2.1999969,21.1999969-15.0999985,48-23.0999985,73.3000031-28.5999985,44.1999969-9.5999985,94.1999969-12.8000031,138.6999969-3.3000031,3.2999878.6999969,14.5,4.4000015,16.7999878,3.4000015,1.7000122-.8000031,1.5-2.5999985.5-3.8000031-2-2.4000015-12.8999939-5.3000031-16.3999939-6.0999985-54.2000122-13.5999985-136.6000061-5.3000031-187.8000031,17.3000031-10.6999969,4.6999969-21.6999969,10.5999985-30.1000061,18.8000031-.6000061-.1999969-.1000061-1,0-1.4000015,1.1000061-3.1999969,6.6000061-12.0999985,5.3000031-14.9000015-1-2.1999969-4.1000061-2.3000031-5.8000031-.8000031-2.3999939,2-5.5,9.9000015-7.3000031,13.0999985-1.8999939,3.5999985-7.3000031,10.5-6.8000031,14.2999954.3000031,2.1999969,2.5,3.6999969,4.5,3.6999969l-.0999756-.0999908Z"/>
  <path class="st0" d="M418.2000122,227.1000061c.7000122,3.3000031,2.2999878,7.8000031,6.3999939,6.1000061,2.1000061-5.3999939.3999939-10.1999969,0-15.5-.2999878-4.5,1.6000061-16.1999969-5.3999939-15.5-4.7999878,2.1999969-27.5,5.3000031-29.3999939,9.5-.5,1.1000061-.2999878,2.3999939.2000122,3.5,1.7999878,2.8999939,14.5-3.3000031,17.7999878-1.8000031-9.8999939,9.3999939-13.1000061,23.6999969-14.3999939,36.9000092-1.8999939,19-.5,42.2999878-5.1000061,60.6000061-2.7999878,11.2000122-14,22.2000122-24.6000061,26.2000122-5.2000122,2-10.5.8999939-14.8999939,2.3999939-2.8999939,1-2.7000122,3.8999939.6000061,4.7000122,16.7999878,4.2999878,34.5-6.6000061,42.7000122-20.8999939,8.6000061-15.2000122,6.5-38.5,7.6000061-55.7000122.7000122-12.1000061,1.2999878-27.5,6-38.6000061,2.5-5.8999939,5.5-10.8999939,11.7000122-13.3999939v7c0,.6000061.5,3.8000031.7000122,4.6000061l.0999451-.1000366Z"/>
  <path class="st0" d="M213,275.5c-8.8999939-1-14.3999939-.8999939-23.3000031-3.6000061-9.8000031-2.8999939-14.8999939-5.6000061-22.3000031-12.7000122-7.6000061-7.3000031-15-16.3000031-19.8999939-25.6999969.3000031-.6999969.8999939,0,1.3000031.1000061,4.8000031,2.1999969,12.6999969,6.8000031,18,5.3000031,2.1999969-.6000061,1.8000031-2.3000031.6000061-3.8000031-2.1000061-2.5-19.3999939-10.6000061-22.6999969-10.8999939-6.5-.6000061-6.1000061,6-5.8999939,10.6999969.1000061,2,.8000031,4.3000031,1,6.1999969.3000031,4.1999969,0,10.8000031.6999969,14.6000061,1.1999969,5.5999908,6.3000031,3.6999969,7-1.6999969.3000031-2.6000061-.1999969-5.6999969,0-8.3999939,4.1000061,4.6999969,7.3999939,10.3000031,11.5,15.1000061,10.6999969,12.6000061,20.1000061,17.6000061,36.3000031,21.2000122,10.3999939,2.2999878,18.8999939.7999878,29.1999969,4.8999939,13,5.1000061,29.8000031,15.1000061,39.3000031,25.5,2.6000061,2.7999878,5.6000061,9.8999939,10.2999878,7.8999939,5.1000061-2.2000122-4-12.7999878-6-15.1000061-11.2000122-12.7999878-38.3000031-27.7999878-55.1999969-29.7000122l.0999908.1000061Z"/>
  <path class="st0" d="M122.0999985,458.5c-28.9000015-24.7999878-35.7999954-70-35-106.2000122,3.0999985,3.3999939,5,8.5,10.3000031,8.7000122,1.5,0,2.3000031,0,3-1.3999939,2.0999985-4.5-3.4000015-9.7999878-5.4000015-13.5-1.4000015-2.7000122-2.9000015-9.2000122-5.9000015-10-4.5999985-1.2000122-4.8000031,1.7999878-7.3000031,4-2.6999969,2.3999939-14.0999985,10-15.0999985,12.2000122-.5999985,1.2000122,0,3.5,1.1999969,4.1000061,4.5,2.1000061,11.5999985-5,15.3000031-7-4.5999985,31.1000061,0,67,16.1999969,94.2999878,5.8000031,9.8999939,20.4000015,27.2000122,32.5,28.3999939,3.3000031.2999878,6.1000061-1.6000061,3.5-4.5-2.1999969-2.5-10-6.2000122-13.4000015-9.1000061h.1000061Z"/>
  <path class="st0" d="M315.3999939,457.1000061c-16.6000061-18.1000061-13.8999939-59.5-3.3999939-80.1000061.2999878-.5-.2000122-.8999939,1-.7000122.2999878,2.5,4.8999939,17.3999939,9.1000061,12.7000122,2.7999878-3.1000061-4.8999939-16.3999939-5.5-20.3999939-3.3999939-6.7000122-12.7999878.6000061-16.7000122,3.5-2,1.5-8.8999939,6.7999878-9.2999878,8.8999939-1.1000061,4.6000061,2.7000122,5.7000122,6.2999878,3.3999939.7999878-.5,7.1000061-6.2000122,7.5-5.7000122-1.1000061,2.6000061-2.5,5-3.6000061,7.7000122-9.2999878,23.5-9.5,62.6000061,11,80.6000061,2.8999939,2.5,10.3999939,7.5,13.1000061,2.6000061,3.1000061-5.5-6.2999878-8.8999939-9.5-12.3999939v-.1000061Z"/>
  <path class="st0" d="M161.1999969,424.2000122c2.8999939,2.2999878,5.6000061-.6000061,6-3.6000061.6000061-4.3999939.8999939-10.7999878,1-15.2999878.1000061-3.5.6000061-11.8999939,0-14.8999939-.1999969-1.2000122-1.3999939-2-2.6000061-2.1000061-2.1999969.6000061-2.5,2.2999878-3,4.2000122-1.6000061,6.1000061-2.6999969,16.3999939-3.1000061,22.7999878-.1999969,2.7999878-.6000061,7,1.6999969,8.8999939h.0000153Z"/>
  <path class="st0" d="M117.9000015,155.6999969c7.3000031,2.3999939,10.0999985-9.3000031,7.5999985-14.3999939-1.1999969-2.5-5.5999985-5-8.4000015-4.3999939-5.5999985,1.3000031-5.8000031,16.6000061.6999969,18.6999969l.1000061.0999908Z"/>
  <path class="st0" d="M390.7999878,419.1000061c-3.7000122-7.2999878-8.1000061-6.3999939-12.6000061-.3999939-4.8999939,6.7000122-4.2999878,14.1000061,5.7000122,12.7000122l-.5-1.3999939c4.7999878-.3999939,9.7000122-6.2000122,7.2999878-10.8999939l.1000061-.0000305Z"/>
  <path class="st0" d="M183.6000061,354.5c4.8000031-.6000061,8.1999969-9.7999878,7.5-14-.5-3-2.8999939-4.7000122-5.8999939-4-1.3999939.2999878-5.6000061,5-6.6000061,6.3999939-3.6000061,5.1000061-2.5,12.6000061,4.8999939,11.6000061h.1000061Z"/>
  <path class="st0" d="M293.3999939,217.8000031c-1.1000061,5.5,1.1000061,10.1000061,7.2999878,9.6999969,6.6000061-.5,9.2000122-11.3999939,4.8999939-15.6000061-3.6000061-3.5-11.3999939,2.1000061-12.2000122,5.8999939l.0000305.0000153Z"/>
  <path class="st0" d="M446.2000122,91.5c.3999939-1.8000031-.7000122-6.1999969-1.3999939-8-.6000061-1.5999985-2.1000061-3-3.8999939-2.5999985-.7000122.0999985-4.7000122,3.5-5.1000061,4.0999985-1.2000122,1.6999969-2.3999939,6.8000031-1.7999878,8.8000031,1.3999939,4.3000031,11.2000122,2.5,12.1000061-2.3000031h.0999756Z"/>
</svg>